<svg id="atm" xmlns="http://www.w3.org/2000/svg" width="54.283" height="54.278" viewBox="0 0 54.283 54.278">
  <path id="Path_82" data-name="Path 82" d="M5.439-511.593a6.357,6.357,0,0,0-3.532,2,6.484,6.484,0,0,0-1.517,2.556c-.244.721-.244.891-.286,5.038-.042,4.921,0,5.292.732,6.788A6.608,6.608,0,0,0,3.8-492.269a6.456,6.456,0,0,0,2.62.721l.658.074.032-6.088c.032-5.9.042-6.088.244-6.448a2.18,2.18,0,0,1,.583-.583c.371-.212.456-.212,19.3-.212s18.932,0,19.3.212a2.18,2.18,0,0,1,.583.583c.2.361.212.552.244,6.448l.032,6.088.658-.074a6.456,6.456,0,0,0,2.62-.721,6.608,6.608,0,0,0,2.959-2.938c.732-1.5.774-1.867.732-6.788l-.042-4.3-.286-.848a6.629,6.629,0,0,0-1.814-2.789,6.559,6.559,0,0,0-2.556-1.527l-.742-.244L27.5-511.72C10.053-511.731,5.959-511.71,5.439-511.593Z" transform="translate(-0.093 511.723)"/>
  <path id="Path_83" data-name="Path 83" d="M96.186-416.745c-.021.074-.032,9.1-.021,20.067l.032,19.939.223.594a4.661,4.661,0,0,0,1.167,1.888,5.18,5.18,0,0,0,2.683,1.5c.785.148,24.914.148,25.688,0a5.17,5.17,0,0,0,3.829-3.352l.244-.626V-416.83l-16.9-.032C99.463-416.883,96.229-416.861,96.186-416.745Zm19.579,5.483a10.345,10.345,0,0,1,7.127,7.17,13.37,13.37,0,0,1,.042,5.027,10.352,10.352,0,0,1-2.7,4.677,9.99,9.99,0,0,1-4.783,2.7,12.783,12.783,0,0,1-4.667,0,9.99,9.99,0,0,1-4.783-2.7,10.352,10.352,0,0,1-2.7-4.677,13.37,13.37,0,0,1,.042-5.027,10.243,10.243,0,0,1,6.618-7,8.017,8.017,0,0,1,3.479-.435A8.1,8.1,0,0,1,115.765-411.261Zm6.661,27.151a1.573,1.573,0,0,1,.032,2.673l-.382.244H104.151l-.382-.244a1.573,1.573,0,0,1,.032-2.673c.339-.2.552-.212,9.312-.212S122.086-384.312,122.425-384.11Z" transform="translate(-85.972 426.929)"/>
  <path id="Path_84" data-name="Path 84" d="M196.233-336.743a6.966,6.966,0,0,0-4.953,5.144,6.269,6.269,0,0,0-.127,1.9,6.324,6.324,0,0,0,1.994,4.508,6.68,6.68,0,0,0,2.662,1.686,4.932,4.932,0,0,0,2.206.286,4.932,4.932,0,0,0,2.206-.286,6.68,6.68,0,0,0,2.662-1.686,6.324,6.324,0,0,0,1.994-4.508,6.269,6.269,0,0,0-.127-1.9,6.919,6.919,0,0,0-5-5.144A7.6,7.6,0,0,0,196.233-336.743Z" transform="translate(-170.873 355.486)"/>
</svg>
