<svg xmlns="http://www.w3.org/2000/svg" xmlns:xlink="http://www.w3.org/1999/xlink" width="148.555" height="90.259" viewBox="0 0 148.555 90.259">
  <defs>
    <linearGradient id="linear-gradient" x1="0.5" x2="0.5" y2="1" gradientUnits="objectBoundingBox">
      <stop offset="0" stop-color="#974aff"/>
      <stop offset="1" stop-color="#01bc50"/>
    </linearGradient>
    <filter id="Icon_awesome-user-alt" x="80.76" y="9.615" width="67.795" height="65.029" filterUnits="userSpaceOnUse">
      <feOffset dy="3" input="SourceAlpha"/>
      <feGaussianBlur stdDeviation="3" result="blur"/>
      <feFlood flood-opacity="0.678"/>
      <feComposite operator="in" in2="blur"/>
      <feComposite in="SourceGraphic"/>
    </filter>
    <filter id="Icon_awesome-user-alt-2" x="0" y="9.615" width="67.795" height="65.029" filterUnits="userSpaceOnUse">
      <feOffset dy="3" input="SourceAlpha"/>
      <feGaussianBlur stdDeviation="3" result="blur-2"/>
      <feFlood flood-opacity="0.678"/>
      <feComposite operator="in" in2="blur-2"/>
      <feComposite in="SourceGraphic"/>
    </filter>
    <filter id="Icon_awesome-user-alt-3" x="20.417" y="0" width="94.51" height="90.259" filterUnits="userSpaceOnUse">
      <feOffset dx="-6" dy="6" input="SourceAlpha"/>
      <feGaussianBlur stdDeviation="3" result="blur-3"/>
      <feFlood flood-opacity="0.349"/>
      <feComposite operator="in" in2="blur-3"/>
      <feComposite in="SourceGraphic"/>
    </filter>
  </defs>
  <g id="Group_71" data-name="Group 71" transform="translate(9 3)">
    <g transform="matrix(1, 0, 0, 1, -9, -3)" filter="url(#Icon_awesome-user-alt)">
      <path id="Icon_awesome-user-alt-4" data-name="Icon awesome-user-alt" d="M24.9,30.01a14,14,0,1,0-14-14A14.008,14.008,0,0,0,24.9,30.01Zm12.449.346H31.988a16.93,16.93,0,0,1-14.18,0H12.449A12.448,12.448,0,0,0,0,42.8V44.36a4.669,4.669,0,0,0,4.668,4.668H45.127A4.669,4.669,0,0,0,49.8,44.36V42.8A12.448,12.448,0,0,0,37.346,30.355Z" transform="translate(89.76 13.62)" fill="url(#linear-gradient)"/>
    </g>
    <g transform="matrix(1, 0, 0, 1, -9, -3)" filter="url(#Icon_awesome-user-alt-2)">
      <path id="Icon_awesome-user-alt-5" data-name="Icon awesome-user-alt" d="M24.9,30.01a14,14,0,1,0-14-14A14.008,14.008,0,0,0,24.9,30.01Zm12.449.346H31.988a16.93,16.93,0,0,1-14.18,0H12.449A12.448,12.448,0,0,0,0,42.8V44.36a4.669,4.669,0,0,0,4.668,4.668H45.127A4.669,4.669,0,0,0,49.8,44.36V42.8A12.448,12.448,0,0,0,37.346,30.355Z" transform="translate(9 13.62)" fill="url(#linear-gradient)"/>
    </g>
    <g transform="matrix(1, 0, 0, 1, -9, -3)" filter="url(#Icon_awesome-user-alt-3)">
      <path id="Icon_awesome-user-alt-6" data-name="Icon awesome-user-alt" d="M38.255,45.036A21.518,21.518,0,1,0,16.736,23.518,21.524,21.524,0,0,0,38.255,45.036Zm19.127.531H49.148a26.013,26.013,0,0,1-21.787,0H19.127A19.126,19.126,0,0,0,0,64.695v2.391a7.175,7.175,0,0,0,7.173,7.173H69.337a7.175,7.175,0,0,0,7.173-7.173V64.695A19.126,19.126,0,0,0,57.382,45.568Z" transform="translate(35.42 1)" fill="url(#linear-gradient)"/>
    </g>
  </g>
</svg>
