<svg xmlns="http://www.w3.org/2000/svg" xmlns:xlink="http://www.w3.org/1999/xlink" width="148.849" height="90.259" viewBox="0 0 148.849 90.259">
  <defs>
    <linearGradient id="linear-gradient" x1="0.5" x2="0.5" y2="1" gradientUnits="objectBoundingBox">
      <stop offset="0" stop-color="#974aff"/>
      <stop offset="1" stop-color="#01bc50"/>
    </linearGradient>
    <filter id="Icon_awesome-user-alt" x="75.303" y="12.615" width="67.795" height="65.029" filterUnits="userSpaceOnUse">
      <feOffset dy="3" input="SourceAlpha"/>
      <feGaussianBlur stdDeviation="3" result="blur"/>
      <feFlood/>
      <feComposite operator="in" in2="blur"/>
      <feComposite in="SourceGraphic"/>
    </filter>
    <filter id="Icon_awesome-user-alt-2" x="5.678" y="12.615" width="67.795" height="65.029" filterUnits="userSpaceOnUse">
      <feOffset dy="3" input="SourceAlpha"/>
      <feGaussianBlur stdDeviation="3" result="blur-2"/>
      <feFlood/>
      <feComposite operator="in" in2="blur-2"/>
      <feComposite in="SourceGraphic"/>
    </filter>
    <filter id="Icon_awesome-user-alt-3" x="27.366" y="0" width="94.51" height="90.259" filterUnits="userSpaceOnUse">
      <feOffset dy="3" input="SourceAlpha"/>
      <feGaussianBlur stdDeviation="3" result="blur-3"/>
      <feFlood/>
      <feComposite operator="in" in2="blur-3"/>
      <feComposite in="SourceGraphic"/>
    </filter>
  </defs>
  <g id="Group_73" data-name="Group 73" transform="translate(0 6)">
    <path id="Icon_awesome-user-alt-4" data-name="Icon awesome-user-alt" d="M15.441,22.632A10.316,10.316,0,1,1,25.757,12.316,10.318,10.318,0,0,1,15.441,22.632Z" transform="translate(84.779 1.997)" fill="url(#linear-gradient)"/>
    <path id="Icon_awesome-user-alt-5" data-name="Icon awesome-user-alt" d="M12.872,17.494a7.747,7.747,0,1,1,7.747-7.747A7.749,7.749,0,0,1,12.872,17.494Z" transform="translate(113.478 11.242)" fill="url(#linear-gradient)"/>
    <path id="Icon_awesome-user-alt-6" data-name="Icon awesome-user-alt" d="M16.822,25.394a11.7,11.7,0,1,0-11.7-11.7A11.7,11.7,0,0,0,16.822,25.394Z" transform="translate(33.646 -0.128)" fill="url(#linear-gradient)"/>
    <path id="Icon_awesome-user-alt-7" data-name="Icon awesome-user-alt" d="M12.872,17.494A7.747,7.747,0,1,0,5.125,9.747,7.749,7.749,0,0,0,12.872,17.494Z" transform="translate(11.466 9.117)" fill="url(#linear-gradient)"/>
    <path id="Icon_awesome-user-alt-8" data-name="Icon awesome-user-alt" d="M16.591,20.665a9.332,9.332,0,1,0-9.332-9.332A9.335,9.335,0,0,0,16.591,20.665Zm8.3.23H21.315a11.281,11.281,0,0,1-9.449,0H8.3A8.3,8.3,0,0,0,0,29.19v1.037a3.112,3.112,0,0,0,3.111,3.111h26.96a3.112,3.112,0,0,0,3.111-3.111V29.19A8.3,8.3,0,0,0,24.886,20.9Z" transform="translate(115.667 15.469)" fill="url(#linear-gradient)"/>
    <path id="Icon_awesome-user-alt-9" data-name="Icon awesome-user-alt" d="M16.591,20.665a9.332,9.332,0,1,0-9.332-9.332A9.335,9.335,0,0,0,16.591,20.665Zm8.3.23H21.315a11.281,11.281,0,0,1-9.449,0H8.3A8.3,8.3,0,0,0,0,29.19v1.037a3.112,3.112,0,0,0,3.111,3.111h26.96a3.112,3.112,0,0,0,3.111-3.111V29.19A8.3,8.3,0,0,0,24.886,20.9Z" transform="translate(0 15.469)" fill="url(#linear-gradient)"/>
    <g transform="matrix(1, 0, 0, 1, 0, -6)" filter="url(#Icon_awesome-user-alt)">
      <path id="Icon_awesome-user-alt-10" data-name="Icon awesome-user-alt" d="M24.9,30.01a14,14,0,1,0-14-14A14.008,14.008,0,0,0,24.9,30.01Zm12.449.346H31.988a16.93,16.93,0,0,1-14.18,0H12.449A12.448,12.448,0,0,0,0,42.8V44.36a4.669,4.669,0,0,0,4.668,4.668H45.127A4.669,4.669,0,0,0,49.8,44.36V42.8A12.448,12.448,0,0,0,37.346,30.355Z" transform="translate(84.3 16.62)" fill="url(#linear-gradient)"/>
    </g>
    <g transform="matrix(1, 0, 0, 1, 0, -6)" filter="url(#Icon_awesome-user-alt-2)">
      <path id="Icon_awesome-user-alt-11" data-name="Icon awesome-user-alt" d="M24.9,30.01a14,14,0,1,0-14-14A14.008,14.008,0,0,0,24.9,30.01Zm12.449.346H31.988a16.93,16.93,0,0,1-14.18,0H12.449A12.448,12.448,0,0,0,0,42.8V44.36a4.669,4.669,0,0,0,4.668,4.668H45.127A4.669,4.669,0,0,0,49.8,44.36V42.8A12.448,12.448,0,0,0,37.346,30.355Z" transform="translate(14.68 16.62)" fill="url(#linear-gradient)"/>
    </g>
    <g transform="matrix(1, 0, 0, 1, 0, -6)" filter="url(#Icon_awesome-user-alt-3)">
      <path id="Icon_awesome-user-alt-12" data-name="Icon awesome-user-alt" d="M38.255,45.036A21.518,21.518,0,1,0,16.736,23.518,21.524,21.524,0,0,0,38.255,45.036Zm19.127.531H49.148a26.013,26.013,0,0,1-21.787,0H19.127A19.126,19.126,0,0,0,0,64.695v2.391a7.175,7.175,0,0,0,7.173,7.173H69.337a7.175,7.175,0,0,0,7.173-7.173V64.695A19.126,19.126,0,0,0,57.382,45.568Z" transform="translate(36.37 4)" fill="url(#linear-gradient)"/>
    </g>
  </g>
</svg>
