<svg xmlns="http://www.w3.org/2000/svg" xmlns:xlink="http://www.w3.org/1999/xlink" width="167.044" height="90.259" viewBox="0 0 167.044 90.259">
  <defs>
    <linearGradient id="linear-gradient" x1="0.5" x2="0.5" y2="1" gradientUnits="objectBoundingBox">
      <stop offset="0" stop-color="#974aff"/>
      <stop offset="1" stop-color="#01bc50"/>
    </linearGradient>
    <filter id="Icon_awesome-user-alt" x="115.862" y="17.469" width="51.182" height="49.338" filterUnits="userSpaceOnUse">
      <feOffset dy="3" input="SourceAlpha"/>
      <feGaussianBlur stdDeviation="3" result="blur"/>
      <feFlood/>
      <feComposite operator="in" in2="blur"/>
      <feComposite in="SourceGraphic"/>
    </filter>
    <filter id="Icon_awesome-user-alt-2" x="0.195" y="17.469" width="51.182" height="49.338" filterUnits="userSpaceOnUse">
      <feOffset dy="3" input="SourceAlpha"/>
      <feGaussianBlur stdDeviation="3" result="blur-2"/>
      <feFlood/>
      <feComposite operator="in" in2="blur-2"/>
      <feComposite in="SourceGraphic"/>
    </filter>
    <filter id="Icon_awesome-user-alt-3" x="84.763" y="12.615" width="67.795" height="65.029" filterUnits="userSpaceOnUse">
      <feOffset dy="3" input="SourceAlpha"/>
      <feGaussianBlur stdDeviation="3" result="blur-3"/>
      <feFlood/>
      <feComposite operator="in" in2="blur-3"/>
      <feComposite in="SourceGraphic"/>
    </filter>
    <filter id="Icon_awesome-user-alt-4" x="14.873" y="12.615" width="67.795" height="65.029" filterUnits="userSpaceOnUse">
      <feOffset dy="3" input="SourceAlpha"/>
      <feGaussianBlur stdDeviation="3" result="blur-4"/>
      <feFlood/>
      <feComposite operator="in" in2="blur-4"/>
      <feComposite in="SourceGraphic"/>
    </filter>
    <filter id="Icon_awesome-user-alt-5" x="36.562" y="0" width="94.51" height="90.259" filterUnits="userSpaceOnUse">
      <feOffset dy="3" input="SourceAlpha"/>
      <feGaussianBlur stdDeviation="3" result="blur-5"/>
      <feFlood/>
      <feComposite operator="in" in2="blur-5"/>
      <feComposite in="SourceGraphic"/>
    </filter>
  </defs>
  <g id="Group_74" data-name="Group 74" transform="translate(0 6)">
    <path id="Icon_awesome-user-alt-6" data-name="Icon awesome-user-alt" d="M10.031,11.811A4.905,4.905,0,1,0,5.125,6.905,4.907,4.907,0,0,0,10.031,11.811Z" transform="translate(5.753 18.334)" fill="url(#linear-gradient)"/>
    <path id="Icon_awesome-user-alt-7" data-name="Icon awesome-user-alt" d="M11.022,14.4a6.2,6.2,0,1,1,6.2-6.2A6.2,6.2,0,0,1,11.022,14.4Zm-5.511.153H7.883a7.495,7.495,0,0,0,6.277,0h2.372a5.511,5.511,0,0,1,5.511,5.511v.689a2.067,2.067,0,0,1-2.067,2.067H2.067A2.067,2.067,0,0,1,0,20.752v-.689A5.511,5.511,0,0,1,5.511,14.553Z" transform="translate(0 23.239)" fill="url(#linear-gradient)"/>
    <path id="Icon_awesome-user-alt-8" data-name="Icon awesome-user-alt" d="M10.031,11.811a4.905,4.905,0,1,1,4.905-4.905A4.907,4.907,0,0,1,10.031,11.811Z" transform="translate(142.449 18.334)" fill="url(#linear-gradient)"/>
    <path id="Icon_awesome-user-alt-9" data-name="Icon awesome-user-alt" d="M11.022,14.4a6.2,6.2,0,1,0-6.2-6.2A6.2,6.2,0,0,0,11.022,14.4Zm5.511.153H14.161a7.495,7.495,0,0,1-6.277,0H5.511A5.511,5.511,0,0,0,0,20.064v.689a2.067,2.067,0,0,0,2.067,2.067H19.977a2.067,2.067,0,0,0,2.067-2.067v-.689A5.511,5.511,0,0,0,16.533,14.553Z" transform="translate(144.783 23.239)" fill="url(#linear-gradient)"/>
    <path id="Icon_awesome-user-alt-10" data-name="Icon awesome-user-alt" d="M14.37,20.49a9.245,9.245,0,1,1,9.245-9.245A9.247,9.247,0,0,1,14.37,20.49Z" transform="translate(93.714 1.997)" fill="url(#linear-gradient)"/>
    <path id="Icon_awesome-user-alt-11" data-name="Icon awesome-user-alt" d="M12.872,17.494a7.747,7.747,0,1,1,7.747-7.747A7.749,7.749,0,0,1,12.872,17.494Z" transform="translate(119.737 11.242)" fill="url(#linear-gradient)"/>
    <path id="Icon_awesome-user-alt-12" data-name="Icon awesome-user-alt" d="M14.37,20.49a9.245,9.245,0,1,0-9.245-9.245A9.247,9.247,0,0,0,14.37,20.49Z" transform="translate(45.294 2.536)" fill="url(#linear-gradient)"/>
    <path id="Icon_awesome-user-alt-13" data-name="Icon awesome-user-alt" d="M12.872,17.494A7.747,7.747,0,1,0,5.125,9.747,7.749,7.749,0,0,0,12.872,17.494Z" transform="translate(21.758 9.117)" fill="url(#linear-gradient)"/>
    <g transform="matrix(1, 0, 0, 1, 0, -6)" filter="url(#Icon_awesome-user-alt)">
      <path id="Icon_awesome-user-alt-14" data-name="Icon awesome-user-alt" d="M16.591,20.665a9.332,9.332,0,1,0-9.332-9.332A9.335,9.335,0,0,0,16.591,20.665Zm8.3.23H21.315a11.281,11.281,0,0,1-9.449,0H8.3A8.3,8.3,0,0,0,0,29.19v1.037a3.112,3.112,0,0,0,3.111,3.111h26.96a3.112,3.112,0,0,0,3.111-3.111V29.19A8.3,8.3,0,0,0,24.886,20.9Z" transform="translate(124.86 21.47)" fill="url(#linear-gradient)"/>
    </g>
    <g transform="matrix(1, 0, 0, 1, 0, -6)" filter="url(#Icon_awesome-user-alt-2)">
      <path id="Icon_awesome-user-alt-15" data-name="Icon awesome-user-alt" d="M16.591,20.665a9.332,9.332,0,1,0-9.332-9.332A9.335,9.335,0,0,0,16.591,20.665Zm8.3.23H21.315a11.281,11.281,0,0,1-9.449,0H8.3A8.3,8.3,0,0,0,0,29.19v1.037a3.112,3.112,0,0,0,3.111,3.111h26.96a3.112,3.112,0,0,0,3.111-3.111V29.19A8.3,8.3,0,0,0,24.886,20.9Z" transform="translate(9.2 21.47)" fill="url(#linear-gradient)"/>
    </g>
    <g transform="matrix(1, 0, 0, 1, 0, -6)" filter="url(#Icon_awesome-user-alt-3)">
      <path id="Icon_awesome-user-alt-16" data-name="Icon awesome-user-alt" d="M24.9,30.01a14,14,0,1,0-14-14A14.008,14.008,0,0,0,24.9,30.01Zm12.449.346H31.988a16.93,16.93,0,0,1-14.18,0H12.449A12.448,12.448,0,0,0,0,42.8V44.36a4.669,4.669,0,0,0,4.668,4.668H45.127A4.669,4.669,0,0,0,49.8,44.36V42.8A12.448,12.448,0,0,0,37.346,30.355Z" transform="translate(93.76 16.62)" fill="url(#linear-gradient)"/>
    </g>
    <g transform="matrix(1, 0, 0, 1, 0, -6)" filter="url(#Icon_awesome-user-alt-4)">
      <path id="Icon_awesome-user-alt-17" data-name="Icon awesome-user-alt" d="M24.9,30.01a14,14,0,1,0-14-14A14.008,14.008,0,0,0,24.9,30.01Zm12.449.346H31.988a16.93,16.93,0,0,1-14.18,0H12.449A12.448,12.448,0,0,0,0,42.8V44.36a4.669,4.669,0,0,0,4.668,4.668H45.127A4.669,4.669,0,0,0,49.8,44.36V42.8A12.448,12.448,0,0,0,37.346,30.355Z" transform="translate(23.87 16.62)" fill="url(#linear-gradient)"/>
    </g>
    <g transform="matrix(1, 0, 0, 1, 0, -6)" filter="url(#Icon_awesome-user-alt-5)">
      <path id="Icon_awesome-user-alt-18" data-name="Icon awesome-user-alt" d="M38.255,45.036A21.518,21.518,0,1,0,16.736,23.518,21.524,21.524,0,0,0,38.255,45.036Zm19.127.531H49.148a26.013,26.013,0,0,1-21.787,0H19.127A19.126,19.126,0,0,0,0,64.695v2.391a7.175,7.175,0,0,0,7.173,7.173H69.337a7.175,7.175,0,0,0,7.173-7.173V64.695A19.126,19.126,0,0,0,57.382,45.568Z" transform="translate(45.56 4)" fill="url(#linear-gradient)"/>
    </g>
  </g>
</svg>
