<svg xmlns="http://www.w3.org/2000/svg" width="42.688" height="27.164" viewBox="0 0 42.688 27.164">
  <path id="Icon_material-group" data-name="Icon material-group" d="M30.6,19.142a5.821,5.821,0,1,0-5.821-5.821A5.8,5.8,0,0,0,30.6,19.142Zm-15.523,0a5.821,5.821,0,1,0-5.821-5.821A5.8,5.8,0,0,0,15.082,19.142Zm0,3.881c-4.521,0-13.582,2.27-13.582,6.791v4.851H28.664V29.814C28.664,25.293,19.6,23.023,15.082,23.023Zm15.523,0c-.563,0-1.2.039-1.882.1a8.188,8.188,0,0,1,3.822,6.694v4.851H44.187V29.814C44.187,25.293,35.126,23.023,30.6,23.023Z" transform="translate(-1.5 -7.5)"/>
</svg>
