<svg id="invest" xmlns="http://www.w3.org/2000/svg" width="54.303" height="54.292" viewBox="0 0 54.303 54.292">
  <path id="Path_88" data-name="Path 88" d="M147.273-511.8A12.857,12.857,0,0,0,136.9-494.945a12.819,12.819,0,0,0,9.577,8.347,15.68,15.68,0,0,0,4.879,0,12.8,12.8,0,0,0,7.9-5.112,12.822,12.822,0,0,0-4.051-18.5A12.818,12.818,0,0,0,147.273-511.8Zm2.386,1.686c.668.339.848.817.848,2.2v1.145l.6.318a4.925,4.925,0,0,1,2.577,4.147,1.685,1.685,0,0,1-1.591,1.633,1.694,1.694,0,0,1-1.591-1.591,1.694,1.694,0,0,0-1.591-1.591,1.674,1.674,0,0,0-1.379.848,1.505,1.505,0,0,0,0,1.5c.276.52.806.774,1.93.923a4.7,4.7,0,0,1,4.136,4.009,4.742,4.742,0,0,1-2.492,4.868l-.6.318v1.092a3.017,3.017,0,0,1-.212,1.506,1.674,1.674,0,0,1-1.379.849,1.674,1.674,0,0,1-1.379-.849,3.017,3.017,0,0,1-.212-1.506v-1.092l-.6-.318a4.925,4.925,0,0,1-2.577-4.147,1.685,1.685,0,0,1,1.591-1.633,1.694,1.694,0,0,1,1.591,1.591,1.694,1.694,0,0,0,1.591,1.591,1.674,1.674,0,0,0,1.379-.848,1.505,1.505,0,0,0,0-1.5c-.276-.52-.806-.774-1.93-.923a4.7,4.7,0,0,1-4.136-4.009,4.742,4.742,0,0,1,2.492-4.868l.6-.318v-1.145a3.137,3.137,0,0,1,.212-1.559A1.536,1.536,0,0,1,149.659-510.112Z" transform="translate(-121.765 511.905)"/>
  <path id="Path_89" data-name="Path 89" d="M12.107-300.93a1.478,1.478,0,0,0-.827.742c-.117.233-4.614,11.4-5.982,14.87-.042.106,5.314.138,26.589.138s26.632-.032,26.589-.138c-1.092-2.768-5.685-14.191-5.865-14.6a1.959,1.959,0,0,0-.647-.849l-.382-.265-3.521-.032L44.54-301.1l-.615.721a16,16,0,0,1-7.276,4.889,12.915,12.915,0,0,1-4.762.7,12.915,12.915,0,0,1-4.762-.7,16.053,16.053,0,0,1-7.276-4.889l-.6-.711H15.83A16.729,16.729,0,0,0,12.107-300.93Zm33.25,9.6a1.674,1.674,0,0,1,.848,1.379,1.674,1.674,0,0,1-.848,1.379c-.414.212-.594.212-13.47.212s-13.056,0-13.47-.212a1.674,1.674,0,0,1-.848-1.379,1.7,1.7,0,0,1,.827-1.368c.382-.212.658-.212,13.47-.223C44.763-291.544,44.943-291.544,45.357-291.332Z" transform="translate(-4.736 323.458)"/>
  <path id="Path_90" data-name="Path 90" d="M0-115.22c0,5.589.011,5.8.212,6.2a1.421,1.421,0,0,0,.636.636c.414.212.562.212,26.3.212s25.889,0,26.3-.212a1.421,1.421,0,0,0,.636-.636c.2-.4.212-.615.212-6.2V-121H0Z" transform="translate(0 162.459)"/>
</svg>
