<svg id="money" xmlns="http://www.w3.org/2000/svg" width="54.271" height="54.243" viewBox="0 0 54.271 54.243">
  <path id="Path_85" data-name="Path 85" d="M24.877-511.547a27.249,27.249,0,0,0-24.33,22.6,29.4,29.4,0,0,0-.212,7.477l.064.424,1.548-.191c.859-.117,1.559-.212,1.57-.223s-.032-.5-.085-1.082A28.085,28.085,0,0,1,3.622-488,23.983,23.983,0,0,1,16.53-505.862,23.883,23.883,0,0,1,42.165-503.3a26.936,26.936,0,0,1,3.394,3.3,4.229,4.229,0,0,1-1.453.085l-1.464-.021v3.182l4.274.032,4.264.021v-8.6l-1.559.032-1.57.032-.032,1.548-.032,1.559L46.746-503.4a27.151,27.151,0,0,0-15.718-7.986A37.617,37.617,0,0,0,24.877-511.547Z" transform="translate(-0.184 511.612)"/>
  <path id="Path_86" data-name="Path 86" d="M119.676-405.541a15.756,15.756,0,0,0-8.7,4.518,15.872,15.872,0,0,0-4.423,8.167,22.974,22.974,0,0,0,0,6.151,15.865,15.865,0,0,0,4.423,8.167,15.866,15.866,0,0,0,8.167,4.423,22.974,22.974,0,0,0,6.151,0,15.866,15.866,0,0,0,8.167-4.423,15.907,15.907,0,0,0,4.423-8.167,22.974,22.974,0,0,0,0-6.151,15.907,15.907,0,0,0-4.423-8.167,15.868,15.868,0,0,0-8.061-4.4A25.218,25.218,0,0,0,119.676-405.541Zm3.8,9.683.032.764.5.074a9.644,9.644,0,0,1,2.164.636l.286.148-.52,1.241a5.32,5.32,0,0,1-.6,1.22c-.042-.011-.488-.17-.986-.339-1.347-.467-2.927-.424-3.129.085-.18.488.244.721,2.015,1.092.583.127,1.3.318,1.6.424a2.8,2.8,0,0,1,2.026,2.408,3.379,3.379,0,0,1-2.7,3.521l-.6.191-.032.806-.032.806h-2.111v-1.591H121a8.234,8.234,0,0,1-2.28-.488c-1.283-.435-1.252-.339-.626-1.75.3-.668.552-1.22.573-1.241a1.379,1.379,0,0,1,.456.18,7.7,7.7,0,0,0,2.927.679c.986.011,1.336-.127,1.336-.509s-.308-.53-1.962-.933a6.279,6.279,0,0,1-2.683-1.029,2.472,2.472,0,0,1-.955-2.312,3.446,3.446,0,0,1,.244-1.241,4.223,4.223,0,0,1,3.055-2c.286-.064.286-.085.286-.87v-.8l1.039.032,1.029.032Z" transform="translate(-95.09 416.891)"/>
  <path id="Path_87" data-name="Path 87" d="M75.742-283.372l-1.432.159v2.4a20.588,20.588,0,0,1-.742,6.236A23.8,23.8,0,0,1,61-259.127a23.97,23.97,0,0,1-7.159,2.248,30.43,30.43,0,0,1-6.947,0,25.1,25.1,0,0,1-12.865-6.035,23.024,23.024,0,0,1-2.62-2.853,7.4,7.4,0,0,1,1.538-.085h1.538v-3.182H26v8.909h3.182v-3.2l1.241,1.294a26.513,26.513,0,0,0,4.645,3.914,27.478,27.478,0,0,0,24.5,3.076,32.294,32.294,0,0,0,5.8-2.917,25.7,25.7,0,0,0,4.486-3.765,25.054,25.054,0,0,0,4.942-7.042,27.005,27.005,0,0,0,2.641-9.482c.18-1.867.085-5.218-.159-5.261C77.227-283.52,76.527-283.457,75.742-283.372Z" transform="translate(-23.262 307.703)"/>
</svg>
