<svg xmlns="http://www.w3.org/2000/svg" width="36.701" height="36.773" viewBox="0 0 36.701 36.773">
  <path id="Subtraction_7" data-name="Subtraction 7" d="M18.349,36.773a2.015,2.015,0,0,1-.957-.242,26.282,26.282,0,0,1-3-2.749c-.6-.565-1.083-1.008-1.11-1.008s-1.193.2-2.6.436c-1.9.324-2.4.406-2.643.406a.9.9,0,0,1-.157-.014,2.249,2.249,0,0,1-1.618-1.4c-.043-.115-.243-1.167-.485-2.557-.193-1.124-.41-2.343-.432-2.361s-1.066-.532-2.222-1.1C.94,25.114.936,25.109.682,24.854a2.024,2.024,0,0,1-.548-2.02c.046-.131.559-1.19,1.12-2.313.519-1.035,1.044-2.1,1.044-2.133s-.461-.98-1.028-2.114S.2,14.113.149,14a2.654,2.654,0,0,1-.131-.522,1.718,1.718,0,0,1,.536-1.522A15.137,15.137,0,0,1,3.493,10.4C4.522,9.9,5.335,9.5,5.35,9.486s.239-1.236.432-2.361c.237-1.362.433-2.425.466-2.529a2.624,2.624,0,0,1,.516-.886,1.808,1.808,0,0,1,1.283-.572,1.318,1.318,0,0,1,.146.008c.111.015,1.069.2,2.277.435,1.14.228,2.085.412,2.107.412s.9-.822,1.958-1.828A14.712,14.712,0,0,1,16.726.208,2.226,2.226,0,0,1,17.188.04,1.911,1.911,0,0,1,17.559,0,2.164,2.164,0,0,1,18,.051c.587.113.612.133,2.712,2.125,1.054,1,1.933,1.816,1.961,1.816s1.193-.2,2.6-.436c1.9-.324,2.4-.406,2.643-.406a.9.9,0,0,1,.157.014,2.249,2.249,0,0,1,1.618,1.4c.043.114.243,1.166.485,2.557.193,1.124.41,2.343.432,2.361s.828.416,1.857.918A15.137,15.137,0,0,1,35.4,11.952a1.8,1.8,0,0,1,.4,2.044c-.05.115-.548,1.135-1.117,2.278-.54,1.073-1.032,2.077-1.032,2.106s.646,1.007,1.382,2.093c.776,1.15,1.411,2.107,1.444,2.177a2.9,2.9,0,0,1,.216.972,1.7,1.7,0,0,1-.647,1.321c-.135.1-1.122.6-2.454,1.239-1.225.587-2.249,1.087-2.269,1.1s-.2,1.1-.392,2.361c-.233,1.488-.395,2.415-.444,2.545a2.4,2.4,0,0,1-.6.9,2.074,2.074,0,0,1-1.25.542.82.82,0,0,1-.125-.009c-.08-.011-1.18-.194-2.615-.435-1.383-.232-2.486-.412-2.512-.412s-1.016.924-1.934,1.793c-1.076,1.024-1.982,1.853-2.107,1.929A1.891,1.891,0,0,1,18.349,36.773Zm3.086-18.407a2.521,2.521,0,0,0-1.953.809,3.161,3.161,0,0,0-.734,2.2,2.939,2.939,0,0,0,.688,2.031,2.363,2.363,0,0,0,1.844.766,2.505,2.505,0,0,0,1.933-.808,3.07,3.07,0,0,0,.738-2.145,3.079,3.079,0,0,0-.663-2.1A2.354,2.354,0,0,0,21.435,18.366Zm-.453-5.57L13.8,24.078H14.92L22.108,12.8H20.983Zm-6.219-.172a2.528,2.528,0,0,0-1.961.8,3.154,3.154,0,0,0-.726,2.191,2.935,2.935,0,0,0,.688,2.035,2.371,2.371,0,0,0,1.843.762,2.507,2.507,0,0,0,1.934-.809,3.081,3.081,0,0,0,.738-2.152,3.048,3.048,0,0,0-.66-2.086A2.364,2.364,0,0,0,14.764,12.624ZM21.357,23.3a1.4,1.4,0,0,1-1.148-.527,2.287,2.287,0,0,1-.421-1.457,2.419,2.419,0,0,1,.426-1.516,1.412,1.412,0,0,1,1.175-.547,1.361,1.361,0,0,1,1.121.516,2.319,2.319,0,0,1,.41,1.469,2.479,2.479,0,0,1-.414,1.512A1.363,1.363,0,0,1,21.357,23.3Zm-6.672-5.75a1.4,1.4,0,0,1-1.148-.527,2.313,2.313,0,0,1-.422-1.472,2.411,2.411,0,0,1,.43-1.512,1.411,1.411,0,0,1,1.172-.551,1.349,1.349,0,0,1,1.121.527,2.363,2.363,0,0,1,.409,1.472A2.47,2.47,0,0,1,15.834,17,1.364,1.364,0,0,1,14.685,17.546Z" transform="translate(0.001)"/>
</svg>
