<svg xmlns="http://www.w3.org/2000/svg" width="24.661" height="24.659" viewBox="0 0 24.661 24.659">
  <g id="trophy" transform="translate(-0.012 512)">
    <path id="Path_13" data-name="Path 13" d="M4.925-511.374v.621l-2.057.014-2.062.014-.222.13a1.177,1.177,0,0,0-.52.689,39.016,39.016,0,0,0,0,4.046,5.5,5.5,0,0,0,1.551,3.174,5.535,5.535,0,0,0,2.866,1.57,3.417,3.417,0,0,1,.424.111,5.306,5.306,0,0,1,.072.636,7.472,7.472,0,0,0,1.358,3.815,8.772,8.772,0,0,0,1.744,1.739,7.992,7.992,0,0,0,2.086,1.021,1.886,1.886,0,0,1,.539.217c0,.024-.188.607-.414,1.286l-.409,1.238-1.551.014-1.556.014-.236.125c-.4.2-.482.361-1.05,2-.284.819-.515,1.5-.515,1.522,0,.048,14.739.048,14.739,0,0-.019-.231-.7-.515-1.522-.568-1.638-.65-1.8-1.05-2l-.236-.125-1.556-.014-1.551-.014-.409-1.238c-.226-.679-.414-1.262-.414-1.286a1.879,1.879,0,0,1,.544-.217,8.037,8.037,0,0,0,2.081-1.021,8.772,8.772,0,0,0,1.744-1.739,7.472,7.472,0,0,0,1.358-3.815,5.306,5.306,0,0,1,.072-.636,3.417,3.417,0,0,1,.424-.111,5.471,5.471,0,0,0,1.522-.559,5.006,5.006,0,0,0,1.344-1.011,5.5,5.5,0,0,0,1.551-3.174,39.015,39.015,0,0,0,0-4.046,1.177,1.177,0,0,0-.52-.689l-.222-.13-2.057-.014-2.062-.014V-512H4.925Zm0,5.472v2.389l-.13-.034a3.874,3.874,0,0,1-1.122-.617,3.385,3.385,0,0,1-1.074-1.6,4.642,4.642,0,0,1-.116-1.411l-.024-1.117H4.925Zm17.282-1.272a4.035,4.035,0,0,1-.149,1.508,3.227,3.227,0,0,1-1.58,1.9,3.159,3.159,0,0,1-.559.226l-.159.029v-4.778h2.466Zm-9.672.53c.087.193.328.737.539,1.2l.385.857,1.276.01,1.272.014-.891,1.19a15.228,15.228,0,0,0-.9,1.267c0,.043.13.6.289,1.238s.284,1.166.279,1.17-.564-.294-1.228-.66l-1.219-.674-1.214.674c-.67.366-1.223.665-1.233.66s.116-.535.279-1.17.289-1.195.289-1.238a15.228,15.228,0,0,0-.9-1.267l-.891-1.19,1.272-.014,1.276-.01.385-.857c.212-.467.453-1.012.539-1.2a1.408,1.408,0,0,1,.193-.347A1.408,1.408,0,0,1,12.535-506.644Z" transform="translate(0)" fill="#974aff"/>
  </g>
</svg>
